PathFileType	4	(X/Y/Z)	/Users/itak/Documents/Research/Walk-IL/dataset/trc/00190_00008.trc
DataRate	CameraRate	NumFrames	NumMarkers	Units	OrigDataRate	OrigDataStartFrame	OrigNumFrames
100.000000	100.000000	4	53	mm	100.000000	672	769
Frame#	Time	RPSI			LPSI			L3			STRN			T10			C7			CLAV			RBAK			LBAK			LSHO			LUPA			LAEL			LAOL			LWTS			LWPS			LFRA			LIFD			LHPS			LHTS			RSHO			RUPA			RAEL			RAOL			RWTS			RWPS			RFRA			RIFD			RHTS			RHPS			RBHD			LFHD			RFHD			LBHD			LHIP			RHIP			RASI			LASI			LKNE			LTHI			LANK			LTIP			LTOE			LMT1			LMT5			LHEE			RKNE			RTHI			RANK			RTIP			RTOE			RMT1			RMT5			RHEE			
		X1	Y1	Z1	X2	Y2	Z2	X3	Y3	Z3	X4	Y4	Z4	X5	Y5	Z5	X6	Y6	Z6	X7	Y7	Z7	X8	Y8	Z8	X9	Y9	Z9	X10	Y10	Z10	X11	Y11	Z11	X12	Y12	Z12	X13	Y13	Z13	X14	Y14	Z14	X15	Y15	Z15	X16	Y16	Z16	X17	Y17	Z17	X18	Y18	Z18	X19	Y19	Z19	X20	Y20	Z20	X21	Y21	Z21	X22	Y22	Z22	X23	Y23	Z23	X24	Y24	Z24	X25	Y25	Z25	X26	Y26	Z26	X27	Y27	Z27	X28	Y28	Z28	X29	Y29	Z29	X30	Y30	Z30	X31	Y31	Z31	X32	Y32	Z32	X33	Y33	Z33	X34	Y34	Z34	X35	Y35	Z35	X36	Y36	Z36	X37	Y37	Z37	X38	Y38	Z38	X39	Y39	Z39	X40	Y40	Z40	X41	Y41	Z41	X42	Y42	Z42	X43	Y43	Z43	X44	Y44	Z44	X45	Y45	Z45	X46	Y46	Z46	X47	Y47	Z47	X48	Y48	Z48	X49	Y49	Z49	X50	Y50	Z50	X51	Y51	Z51	X52	Y52	Z52	X53	Y53	Z53	

673	6.72	1033.345703125	1066.616333007812	520.708984375	1117.714599609375	1066.576782226562	611.6754760742188	1073.3095703125	1104.546508789062	566.9090576171875	901.5325317382812	1304.215209960938	766.0201416015625	1105.381958007812	1266.414184570312	553.381103515625	1070.068359375	1532.114990234375	624.598876953125	930.5941162109375	1417.569580078125	760.3428344726562	1039.481811523438	1366.084350585938	489.9435119628906	1148.158935546875	1503.913818359375	683.4314575195312	1153.835693359375	1485.941040039062	791.5181884765625	1234.029052734375	1355.702758789062	805.9922485351562	1250.842041015625	1141.648315429688	828.4461669921875	1217.758544921875	1117.522705078125	749.43017578125	1134.584350585938	953.9795532226562	958.6861572265625	1198.60498046875	906.6336059570312	915.2996826171875	1239.133666992188	1036.466064453125	869.984375	1064.3271484375	797.0479125976562	1000.6181640625	1171.889404296875	849.7318115234375	950.9567260742188	1129.878295898438	886.7005004882812	997.2738647460938	896.2188110351562	1515.020751953125	545.8355102539062	862.5076293945312	1453.742431640625	478.5664978027344	837.7816772460938	1168.483520507812	404.7716369628906	910.5927734375	1159.195678710938	469.8520202636719	744.0921020507812	960.8162841796875	548.2155151367188	755.7454223632812	930.4210815429688	464.7638549804688	802.3618774414062	1095.044677734375	417.953369140625	735.2990112304688	779.4158935546875	602.6175537109375	712.2891845703125	872.80419921875	574.3400268554688	733.29248046875	852.7833862304688	499.4418029785156	948.5775756835938	1699.098266601562	662.3011474609375	912.2713623046875	1678.391235351562	875.669677734375	822.362548828125	1679.936401367188	781.1837768554688	1045.542846679688	1707.486694335938	757.2993774414062	1123.981323242188	1002.511169433594	768.0232543945312	835.0503540039062	1020.167541503906	532.7182006835938	820.705810546875	1048.061279296875	631.1598510742188	998.1237182617188	1036.400268554688	817.2485961914062	1056.374633789062	507.6056518554688	773.152587890625	1084.026000976562	648.2869262695312	786.6578979492188	1096.044799804688	33.48710632324219	711.8158569335938	1081.213989257812	278.5322570800781	755.9226684570312	916.5897216796875	43.84817886352539	837.2055053710938	920.93701171875	49.22940444946289	770.134521484375	1042.027221679688	28.06458473205566	812.1176147460938	1089.213623046875	41.64786529541016	627.2238159179688	812.2884521484375	514.929931640625	606.369873046875	783.08251953125	790.3079223632812	575.916748046875	940.5763549804688	35.91193008422852	531.0086669921875	826.8999633789062	390.3462524414062	617.066162109375	781.5896606445312	52.14963912963867	680.1751708984375	850.5523681640625	45.6520881652832	688.11376953125	828.8915405273438	35.64723968505859	564.6123046875	1020.722717285156	37.95601654052734	554.9022216796875	
674	6.73	1032.405151367188	1066.342041015625	522.8593139648438	1116.84130859375	1066.223754882812	613.8768920898438	1072.367553710938	1104.179931640625	569.0579833984375	900.5220336914062	1304.081909179688	767.5960693359375	1104.78369140625	1265.931640625	555.4409790039062	1069.706665039062	1531.772705078125	626.4780883789062	929.6944580078125	1417.408325195312	761.8668823242188	1039.299560546875	1365.638793945312	491.8344421386719	1147.630126953125	1503.447265625	685.488037109375	1153.020751953125	1485.416748046875	793.5963134765625	1232.845458984375	1354.90576171875	808.2102661132812	1248.681640625	1140.639526367188	830.6029663085938	1216.0283203125	1116.8818359375	751.3248291015625	1131.228637695312	952.4452514648438	958.9930419921875	1195.355224609375	905.3007202148438	916.095458984375	1236.436889648438	1035.28662109375	871.5918579101562	1059.790161132812	795.874267578125	998.96728515625	1168.141845703125	848.255859375	951.1883544921875	1125.716186523438	885.0732421875	997.24072265625	896.07958984375	1514.738403320312	547.1953735351562	862.6314086914062	1453.547973632812	479.7450561523438	838.4288330078125	1168.459228515625	405.3881530761719	910.7581787109375	1159.001220703125	470.9953918457031	743.9535522460938	959.7160034179688	546.6109008789062	756.6199340820312	929.8793334960938	463.01953125	803.0845947265625	1094.970703125	417.8551940917969	735.2568969726562	777.878173828125	599.8007202148438	712.09521484375	871.3832397460938	571.84423828125	734.0053100585938	851.9509887695312	497.0565185546875	948.0602416992188	1698.929443359375	664.0203247070312	911.06982421875	1677.950805664062	877.2307739257812	821.4432373046875	1679.570678710938	782.4767456054688	1044.705932617188	1707.215698242188	759.3272705078125	1122.904541015625	1002.265014648438	770.29736328125	833.7892456054688	1019.640441894531	535.0447998046875	819.6525268554688	1047.747802734375	633.2041015625	996.839111328125	1036.017333984375	819.2260131835938	1056.447143554688	507.32958984375	773.4242553710938	1083.750732421875	648.0271606445312	787.6187133789062	1095.963256835938	33.60076904296875	711.7581176757812	1081.16845703125	278.4382629394531	756.03515625	916.3363037109375	43.64259719848633	837.1068725585938	920.80615234375	49.07136917114258	770.1123657226562	1041.978881835938	28.14085960388184	812.1148071289062	1089.106689453125	41.60837936401367	627.1348876953125	813.7918090820312	514.3965454101562	605.9564819335938	782.8321533203125	789.7071533203125	577.2680053710938	940.5011596679688	35.63420104980469	530.9703369140625	828.15087890625	390.0628662109375	616.8049926757812	780.0733642578125	49.11029052734375	680.6583862304688	849.7333984375	44.36697006225586	688.3001098632812	828.3763427734375	34.96284484863281	564.2703857421875	1020.595397949219	37.4651985168457	555.0213012695312	
675	6.74	1031.529541015625	1066.077392578125	524.9500122070312	1116.018920898438	1065.869384765625	616.0370483398438	1071.458374023438	1103.818359375	571.1526489257812	899.5258178710938	1303.955200195312	769.118408203125	1104.179077148438	1265.456176757812	557.406982421875	1069.312622070312	1531.439086914062	628.24658203125	928.797119140625	1417.255615234375	763.3200073242188	1039.058349609375	1365.194946289062	493.63720703125	1147.077392578125	1502.993041992188	687.4194946289062	1152.216918945312	1484.91455078125	795.5546875	1231.66455078125	1354.114379882812	810.2807006835938	1246.476684570312	1139.630126953125	832.5729370117188	1214.232299804688	1116.27001953125	753.040283203125	1127.892944335938	950.7686767578125	958.9285888671875	1192.285400390625	903.8616943359375	916.4896240234375	1233.781982421875	1034.074584960938	872.9251098632812	1055.598510742188	794.4287719726562	996.7921142578125	1164.644165039062	846.6104736328125	950.9530029296875	1121.7919921875	883.1815795898438	996.800537109375	895.8921508789062	1514.445434570312	548.4861450195312	862.6983032226562	1453.3427734375	480.8655395507812	838.9928588867188	1168.4140625	405.9789123535156	910.8394775390625	1158.782470703125	472.0946960449219	743.7064208984375	958.6685791015625	545.004638671875	757.3992919921875	929.368896484375	461.28466796875	803.7105102539062	1094.902587890625	417.7360534667969	735.1873779296875	776.3794555664062	596.9857788085938	711.8214721679688	870.0037841796875	569.3739624023438	734.65625	851.15673828125	494.7087097167969	947.5284423828125	1698.768798828125	665.5999755859375	909.8992919921875	1677.577392578125	878.669677734375	820.5467529296875	1679.275024414062	783.671142578125	1043.881591796875	1706.9697265625	761.2011108398438	1121.843383789062	1002.004516601562	772.5354614257812	832.6793212890625	1019.154602050781	537.1734619140625	818.6088256835938	1047.45068359375	635.1381225585938	995.4995727539062	1035.581665039062	821.078369140625	1056.453125	507.0493774414062	773.6994018554688	1083.403564453125	647.7576293945312	788.5872802734375	1095.884643554688	33.71543502807617	711.7071533203125	1081.0849609375	278.3489074707031	756.1535034179688	916.08447265625	43.43393325805664	837.0064697265625	920.666259765625	48.89953994750977	770.0849609375	1041.921142578125	28.22002983093262	812.1073608398438	1089.004760742188	41.56792831420898	627.0496215820312	815.3416748046875	513.9065551757812	605.3966064453125	782.4514770507812	789.12548828125	578.5147094726562	940.4666137695312	35.36592864990234	530.9212036132812	829.4551391601562	389.805419921875	616.4658203125	778.8706665039062	46.64820861816406	681.0944213867188	849.1167602539062	43.36162185668945	688.5233154296875	827.9852905273438	34.48659133911133	563.9828491210938	1020.518859863281	36.89777374267578	555.150634765625	
676	6.75	1030.739624023438	1065.825927734375	526.9840087890625	1115.256591796875	1065.518310546875	618.163330078125	1070.604858398438	1103.468017578125	573.1996459960938	898.5448608398438	1303.845581054688	770.5855102539062	1103.5927734375	1264.999145507812	559.2908325195312	1068.890747070312	1531.121459960938	629.9193725585938	927.904541015625	1417.119750976562	764.70849609375	1038.769897460938	1364.765869140625	495.3601989746094	1146.501586914062	1502.565307617188	689.2474975585938	1151.41943359375	1484.447631835938	797.4165649414062	1230.483642578125	1353.342651367188	812.2310180664062	1244.224731445312	1138.633911132812	834.3673706054688	1212.363525390625	1115.703735351562	754.5883178710938	1124.5390625	948.983154296875	958.481689453125	1189.399658203125	902.3297729492188	916.48583984375	1231.171264648438	1032.843505859375	873.9940795898438	1051.757690429688	792.726806640625	994.10302734375	1161.406372070312	844.80810546875	950.2557983398438	1118.122192382812	881.0347290039062	995.9666748046875	895.6632690429688	1514.1552734375	549.7147827148438	862.7101440429688	1453.138549804688	481.936767578125	839.4642944335938	1168.36572265625	406.5488586425781	910.8317260742188	1158.554321289062	473.1565246582031	743.3944091796875	957.6630859375	543.4188232421875	758.06494140625	928.8971557617188	459.5808410644531	804.2255249023438	1094.851806640625	417.6140441894531	735.117919921875	774.9060668945312	594.1517333984375	711.5153198242188	868.6656494140625	566.9512939453125	735.2344360351562	850.4107055664062	492.3908386230469	946.9797973632812	1698.617309570312	667.0462036132812	908.7575073242188	1677.27734375	879.9947509765625	819.6679077148438	1679.05810546875	784.7723999023438	1043.068237304688	1706.750610351562	762.927001953125	1120.768676757812	1001.730651855469	774.748046875	831.7484130859375	1018.74658203125	539.0664672851562	817.5863037109375	1047.190307617188	636.944580078125	994.1083374023438	1035.1201171875	822.8177490234375	1056.385131835938	506.7708435058594	773.9848022460938	1082.970336914062	647.481689453125	789.570068359375	1095.810180664062	33.82783508300781	711.6612548828125	1080.97021484375	278.2633972167969	756.2752075195312	915.845947265625	43.23063659667969	836.9100341796875	920.5210571289062	48.72109222412109	770.0531616210938	1041.856689453125	28.29929733276367	812.0930786132812	1088.90771484375	41.52564239501953	626.9676513671875	816.916015625	513.47607421875	604.7467651367188	781.981689453125	788.5654296875	579.6400756835938	940.4697875976562	35.12308120727539	530.88525390625	830.8023071289062	389.5906372070312	616.099853515625	778.0157470703125	44.80339813232422	681.487060546875	848.7103271484375	42.60577392578125	688.7716064453125	827.7223510742188	34.19815444946289	563.7786254882812	1020.493774414062	36.28318023681641	555.2902221679688	
